<svg xmlns="http://www.w3.org/2000/svg" xmlns:xlink="http://www.w3.org/1999/xlink" width="500" zoomAndPan="magnify" viewBox="0 0 375 374.999991" height="500" preserveAspectRatio="xMidYMid meet" version="1.2"><defs><clipPath id="53ecae130f"><path d="M 126 87.160156 L 248 87.160156 L 248 248 L 126 248 Z M 126 87.160156 "/></clipPath><clipPath id="4fef8b3378"><path d="M 167 236 L 217 236 L 217 252.910156 L 167 252.910156 Z M 167 236 "/></clipPath></defs><g id="5fa26850ee"><rect x="0" width="375" y="0" height="374.999991" style="fill:#ffffff;fill-opacity:1;stroke:none;"/><rect x="0" width="375" y="0" height="374.999991" style="fill:#f4f4f4;fill-opacity:1;stroke:none;"/><g clip-rule="nonzero" clip-path="url(#53ecae130f)"><path style=" stroke:none;fill-rule:nonzero;fill:#310000;fill-opacity:1;" d="M 247.445312 170.351562 C 247.46875 171.035156 247.492188 171.71875 247.515625 172.449219 C 236.902344 186.386719 215.132812 196.035156 219.242188 217.578125 C 220.4375 223.863281 222.242188 227.835938 224.683594 233.6875 C 220.835938 237.828125 213.191406 244.125 208.953125 246.90625 C 204.207031 243.445312 200.855469 241.800781 194.585938 240.726562 C 185.34375 239.558594 177.421875 241.410156 170.664062 247.308594 C 166.332031 244.578125 158.363281 238.738281 154.277344 234.695312 C 157.148438 222.070312 161.964844 215.628906 156.820312 202.226562 C 151.273438 188.335938 138.777344 197.046875 128.132812 185.058594 C 128.113281 184.472656 126.515625 170.988281 126.496094 170.402344 C 124.890625 124.394531 139.269531 87.160156 184.066406 87.160156 C 231.882812 87.160156 245.839844 124.394531 247.445312 170.351562 Z M 247.445312 170.351562 "/></g><g clip-rule="nonzero" clip-path="url(#4fef8b3378)"><path style=" stroke:none;fill-rule:nonzero;fill:#ff8019;fill-opacity:1;" d="M 196.121094 236.417969 C 198.824219 236.441406 201.535156 236.644531 204.191406 237.035156 C 206.394531 237.359375 208.582031 237.871094 210.695312 238.589844 C 211.148438 238.742188 216.472656 241.175781 216.316406 241.339844 C 208.417969 249.898438 196.519531 252.90625 189.699219 252.820312 C 182.785156 252.738281 175.296875 250.289062 167.929688 245.707031 C 174.453125 240.015625 182.804688 237.183594 191.351562 236.566406 C 192.933594 236.453125 194.527344 236.402344 196.121094 236.417969 Z M 196.121094 236.417969 "/></g><path style=" stroke:none;fill-rule:nonzero;fill:#ff8019;fill-opacity:1;" d="M 203.867188 217.878906 C 200.734375 214.613281 196.722656 214.027344 192.902344 216.222656 C 190.660156 217.539062 188.238281 219.292969 185.507812 217.734375 C 183.667969 216.710938 182.144531 214.90625 179.90625 214.953125 C 177.425781 215.003906 175.085938 216.367188 173.390625 217.976562 C 171.976562 219.292969 170.765625 220.851562 169.449219 222.265625 L 207.550781 222.996094 C 207.878906 222.605469 204.273438 218.367188 203.867188 217.878906 Z M 203.867188 217.878906 "/><path style=" stroke:none;fill-rule:nonzero;fill:#ff8019;fill-opacity:1;" d="M 207.566406 224.847656 C 207.429688 225.089844 203.75 231.28125 195.871094 231.476562 C 194.363281 231.523438 193.167969 230.746094 191.789062 230.304688 C 190.507812 229.917969 189.140625 229.820312 187.835938 230.0625 C 185.511719 230.5 183.601562 231.574219 181.164062 231.425781 C 179.015625 231.28125 176.894531 230.5 175.050781 229.28125 C 174.503906 228.941406 169.089844 224.457031 169.324219 224.214844 C 169.371094 224.164062 169.417969 224.117188 169.464844 224.066406 Z M 207.566406 224.847656 "/><path style=" stroke:none;fill-rule:nonzero;fill:#ff8019;fill-opacity:1;" d="M 230.058594 164.230469 L 220.808594 156.320312 C 216.46875 152.605469 211.585938 152.683594 207.546875 156.480469 L 199.347656 164.152344 Z M 230.058594 164.230469 "/><path style=" stroke:none;fill-rule:nonzero;fill:#ff8019;fill-opacity:1;" d="M 149.378906 159.152344 C 154.117188 156.8125 159.8125 156.765625 164.714844 159.054688 L 175.253906 163.929688 L 139.757812 163.929688 Z M 149.378906 159.152344 "/><path style=" stroke:none;fill-rule:nonzero;fill:#ff8019;fill-opacity:1;" d="M 186.957031 165.78125 L 191.703125 170.703125 L 196.121094 195.410156 L 193.816406 204.671875 L 181.105469 204.671875 L 178.257812 195.65625 L 181.074219 171.628906 L 185.253906 165.878906 C 185.675781 165.339844 186.5 165.292969 186.957031 165.78125 Z M 186.957031 165.78125 "/><path style=" stroke:none;fill-rule:nonzero;fill:#018b54;fill-opacity:1;" d="M 155.210938 235.617188 C 140.085938 220.753906 131.679688 208.179688 127.195312 179.609375 C 140.671875 186.332031 154.378906 185.226562 159.929688 199.164062 C 165.117188 212.519531 161.941406 224.75 155.210938 235.617188 Z M 155.210938 235.617188 "/><path style=" stroke:none;fill-rule:nonzero;fill:#018b54;fill-opacity:1;" d="M 170.890625 130.175781 C 170.449219 128.621094 170.097656 127.125 169.75 125.578125 C 168.105469 118.003906 168.394531 108.371094 174.664062 102.527344 C 179.074219 98.40625 186.824219 97.195312 193.039062 100.371094 C 200.394531 104.144531 202.355469 112.1875 201.875 118.484375 C 201.273438 125.992188 198.785156 133.21875 195.484375 140.03125 C 193.863281 143.386719 192.007812 146.628906 190.148438 149.867188 C 188.941406 151.996094 187.714844 155.34375 184.277344 155.554688 C 181.035156 155.78125 178.855469 152.207031 178.050781 150.128906 C 175.457031 143.6875 172.734375 136.890625 170.890625 130.175781 Z M 170.890625 130.175781 "/><path style=" stroke:none;fill-rule:nonzero;fill:#f52a23;fill-opacity:1;" d="M 247.003906 163.929688 C 250.097656 195.949219 237.253906 220.21875 223.457031 235.035156 C 221.0625 229.183594 218.179688 223.386719 216.9375 217.097656 C 212.828125 195.558594 229.882812 174.164062 247.003906 163.929688 Z M 247.003906 163.929688 "/><path style=" stroke:none;fill-rule:nonzero;fill:#f52a23;fill-opacity:1;" d="M 230.121094 167.234375 L 199.414062 167.234375 L 208.660156 175.140625 C 213.003906 178.859375 217.886719 178.78125 221.925781 174.984375 Z M 230.121094 167.234375 "/><path style=" stroke:none;fill-rule:nonzero;fill:#f52a23;fill-opacity:1;" d="M 165.648438 170.507812 C 160.910156 172.847656 155.214844 172.894531 150.3125 170.605469 L 139.773438 165.730469 L 175.269531 165.730469 Z M 165.648438 170.507812 "/><path style=" stroke:none;fill-rule:nonzero;fill:#f52a23;fill-opacity:1;" d="M 175.125 130.488281 C 174.695312 129.367188 174.3125 128.195312 173.933594 127.074219 C 172.128906 121.375 171.628906 114.015625 175.984375 109.09375 C 179.027344 105.632812 184.820312 104.121094 189.757812 106.117188 C 195.632812 108.457031 197.695312 114.5 197.765625 119.328125 C 197.871094 125.125 196.511719 130.777344 194.460938 136.285156 C 193.484375 138.96875 192.308594 141.550781 191.132812 144.179688 C 190.367188 145.886719 189.679688 148.566406 187.066406 148.957031 C 184.59375 149.347656 182.703125 146.765625 181.96875 145.253906 C 179.5625 140.476562 177.050781 135.507812 175.125 130.488281 Z M 175.125 130.488281 "/><path style=" stroke:none;fill-rule:nonzero;fill:#f52a23;fill-opacity:1;" d="M 182.078125 204.621094 C 180.230469 204.71875 178.382812 204.71875 176.527344 204.621094 C 173.941406 204.476562 172.144531 201.84375 173.234375 199.601562 L 173.234375 199.554688 C 173.960938 198.09375 175.238281 196.921875 176.726562 196.335938 C 177.300781 196.09375 177.929688 195.949219 178.515625 195.949219 C 178.917969 196.335938 179.570312 196.972656 179.832031 197.457031 C 180.089844 197.898438 180.351562 198.382812 180.515625 198.871094 C 181.457031 200.820312 182.148438 202.476562 182.078125 204.621094 Z M 182.078125 204.621094 "/><path style=" stroke:none;fill-rule:nonzero;fill:#f52a23;fill-opacity:1;" d="M 193.925781 198.441406 C 194.101562 197.933594 194.28125 197.371094 194.554688 196.914062 C 194.832031 196.40625 195.441406 195.695312 195.816406 195.289062 C 196.449219 195.289062 197.039062 195.492188 197.632812 195.746094 C 199.167969 196.457031 200.523438 197.777344 201.261719 199.40625 L 201.261719 199.457031 C 202.46875 201.996094 200.617188 204.890625 197.890625 204.941406 C 196.140625 204.992188 194.386719 204.941406 192.628906 204.789062 C 192.5 202.453125 193.171875 200.625 193.925781 198.441406 Z M 193.925781 198.441406 "/><path style=" stroke:none;fill-rule:nonzero;fill:#f52a23;fill-opacity:1;" d="M 171.230469 150.527344 C 173.859375 150.527344 174 154.472656 171.371094 154.472656 C 168.789062 154.472656 168.652344 150.527344 171.230469 150.527344 Z M 171.230469 150.527344 "/><path style=" stroke:none;fill-rule:nonzero;fill:#f52a23;fill-opacity:1;" d="M 164.460938 146.285156 C 167.089844 146.285156 167.230469 150.234375 164.601562 150.234375 C 161.96875 150.234375 161.832031 146.285156 164.460938 146.285156 Z M 164.460938 146.285156 "/><path style=" stroke:none;fill-rule:nonzero;fill:#f52a23;fill-opacity:1;" d="M 155.84375 143.507812 C 158.472656 143.507812 158.613281 147.457031 155.980469 147.457031 C 153.402344 147.457031 153.265625 143.507812 155.84375 143.507812 Z M 155.84375 143.507812 "/><path style=" stroke:none;fill-rule:nonzero;fill:#f52a23;fill-opacity:1;" d="M 148.335938 141.851562 C 150.964844 141.851562 151.105469 145.796875 148.472656 145.796875 C 145.84375 145.796875 145.707031 141.851562 148.335938 141.851562 Z M 148.335938 141.851562 "/><path style=" stroke:none;fill-rule:nonzero;fill:#f52a23;fill-opacity:1;" d="M 140.726562 142.875 C 143.355469 142.875 143.496094 146.820312 140.867188 146.820312 C 138.234375 146.820312 138.097656 142.875 140.726562 142.875 Z M 140.726562 142.875 "/><path style=" stroke:none;fill-rule:nonzero;fill:#f52a23;fill-opacity:1;" d="M 147.527344 220.589844 L 156.980469 210.988281 L 159.601562 213.574219 L 150.148438 223.171875 Z M 147.527344 220.589844 "/><path style=" stroke:none;fill-rule:nonzero;fill:#f52a23;fill-opacity:1;" d="M 140 201.550781 L 151.003906 191.757812 L 148.570312 189.027344 L 137.566406 198.824219 Z M 140 201.550781 "/><path style=" stroke:none;fill-rule:nonzero;fill:#faf3ba;fill-opacity:1;" d="M 178.808594 129.335938 C 178.539062 128.554688 178.269531 127.824219 177.996094 127.042969 C 176.792969 123.242188 176.472656 118.273438 179.378906 114.957031 C 181.4375 112.617188 185.296875 111.59375 188.65625 112.960938 C 192.609375 114.566406 194.015625 118.613281 194.03125 121.828125 C 194.117188 125.726562 193.179688 129.53125 191.796875 133.234375 C 191.132812 135.035156 190.316406 136.792969 189.550781 138.546875 C 189.054688 139.667969 188.582031 141.46875 186.835938 141.761719 C 185.191406 142.007812 183.914062 140.300781 183.390625 139.277344 C 181.816406 136.058594 180.09375 132.699219 178.808594 129.335938 Z M 178.808594 129.335938 "/><path style=" stroke:none;fill-rule:nonzero;fill:#faf3ba;fill-opacity:1;" d="M 237.078125 206.621094 L 225.554688 195.949219 L 223.164062 198.53125 L 234.683594 209.203125 Z M 237.078125 206.621094 "/><path style=" stroke:none;fill-rule:nonzero;fill:#faf3ba;fill-opacity:1;" d="M 145.136719 213.382812 L 155.914062 202.707031 L 153.339844 200.125 L 142.5625 210.796875 Z M 145.136719 213.382812 "/><path style=" stroke:none;fill-rule:nonzero;fill:#018b54;fill-opacity:1;" d="M 202.652344 155.230469 C 199.660156 155.925781 198 149.511719 200.992188 148.816406 C 203.980469 148.117188 205.640625 154.53125 202.652344 155.230469 Z M 202.652344 155.230469 "/><path style=" stroke:none;fill-rule:nonzero;fill:#018b54;fill-opacity:1;" d="M 208.398438 146.582031 C 205.410156 147.28125 203.75 140.867188 206.738281 140.167969 C 209.730469 139.46875 211.390625 145.882812 208.398438 146.582031 Z M 208.398438 146.582031 "/><path style=" stroke:none;fill-rule:nonzero;fill:#018b54;fill-opacity:1;" d="M 216.921875 139.804688 C 213.933594 140.503906 212.273438 134.089844 215.261719 133.390625 C 218.253906 132.695312 219.910156 139.109375 216.921875 139.804688 Z M 216.921875 139.804688 "/><path style=" stroke:none;fill-rule:nonzero;fill:#018b54;fill-opacity:1;" d="M 224.699219 135.136719 C 221.707031 135.832031 220.046875 129.421875 223.039062 128.722656 C 226.027344 128.023438 227.6875 134.4375 224.699219 135.136719 Z M 224.699219 135.136719 "/><path style=" stroke:none;fill-rule:nonzero;fill:#018b54;fill-opacity:1;" d="M 233.875 134.757812 C 230.886719 135.453125 229.226562 129.039062 232.214844 128.34375 C 235.207031 127.644531 236.8125 134.070312 233.875 134.757812 Z M 233.875 134.757812 "/><path style=" stroke:none;fill-rule:nonzero;fill:#018b54;fill-opacity:1;" d="M 223.578125 223.75 L 225.449219 209.917969 L 228.96875 210.394531 L 227.101562 224.226562 Z M 223.578125 223.75 "/><path style=" stroke:none;fill-rule:nonzero;fill:#018b54;fill-opacity:1;" d="M 239.546875 197.199219 L 234.644531 182.753906 L 231.3125 183.921875 L 236.214844 198.367188 Z M 239.546875 197.199219 "/></g></svg>